<svg width="117" height="151" viewBox="0 0 117 151" fill="none" xmlns="http://www.w3.org/2000/svg">
<path d="M12.7877 73.1499L6.8201 63.99H38.8092V3.70996H78.1537V63.99H110.143L104.175 73.1499H108.577L116.963 60.2799H81.8314V0H35.1315V60.2799H0L8.37644 73.1499H12.7877Z" fill="#6BBA1A"/>
<path d="M70.1936 125.32L58.4765 143.31L46.7594 125.32H42.358L58.4765 150.08L74.6048 125.32H70.1936Z" fill="#6BBA1A"/>
<path d="M18.9734 118C15.2461 116.05 12.3317 113.31 10.2103 109.81C8.09886 106.3 7.03818 102.32 7.03818 97.86C7.03818 93.4 8.09886 89.4199 10.2103 85.9099C12.3218 82.3999 15.2461 79.67 18.9734 77.71C22.7006 75.76 26.8839 74.7799 31.5331 74.7799C35.8056 74.7799 39.6121 75.5399 42.9627 77.0499C46.3133 78.5599 49.0691 80.75 51.2499 83.61L41.8921 91.99C39.1661 88.54 35.9642 86.8199 32.2865 86.8199C29.1837 86.8199 26.6956 87.8199 24.8121 89.8099C22.9286 91.8099 21.9869 94.49 21.9869 97.85C21.9869 101.21 22.9286 103.89 24.8121 105.89C26.6956 107.89 29.1837 108.88 32.2865 108.88C35.9741 108.88 39.176 107.16 41.8921 103.71L51.2499 112.09C49.0691 114.95 46.3133 117.13 42.9627 118.65C39.6121 120.16 35.8056 120.92 31.5331 120.92C26.8839 120.92 22.7006 119.94 18.9734 117.99V118Z" fill="#6BBA1A"/>
<path d="M64.8604 117.97C61.0935 116 58.1395 113.25 56.0082 109.74C53.8769 106.23 52.8063 102.27 52.8063 97.86C52.8063 93.45 53.8769 89.49 56.0082 85.98C58.1395 82.47 61.0935 79.73 64.8604 77.75C68.6274 75.78 72.88 74.7899 77.6085 74.7899C82.337 74.7899 86.5896 75.78 90.3565 77.75C94.1234 79.73 97.0775 82.47 99.2088 85.98C101.34 89.49 102.411 93.45 102.411 97.86C102.411 102.27 101.34 106.23 99.2088 109.74C97.0775 113.25 94.1234 115.99 90.3565 117.97C86.5896 119.94 82.337 120.93 77.6085 120.93C72.88 120.93 68.6274 119.94 64.8604 117.97ZM82.6046 107.53C84.0916 106.63 85.2712 105.35 86.1534 103.68C87.0357 102.02 87.4719 100.08 87.4719 97.85C87.4719 95.62 87.0357 93.6799 86.1534 92.0199C85.2712 90.3599 84.0916 89.0799 82.6046 88.1699C81.1177 87.2699 79.4523 86.8099 77.6184 86.8099C75.7845 86.8099 74.1092 87.2599 72.6223 88.1699C71.1353 89.0699 69.9557 90.3599 69.0734 92.0199C68.1912 93.6799 67.755 95.62 67.755 97.85C67.755 100.08 68.1912 102.02 69.0734 103.68C69.9557 105.34 71.1353 106.62 72.6223 107.53C74.1092 108.43 75.7746 108.88 77.6184 108.88C79.4622 108.88 81.1276 108.43 82.6046 107.53Z" fill="#6BBA1A"/>
<path d="M115.773 116.26V120.13H103.947V117.06L109.28 112.11C109.746 111.67 110.054 111.3 110.212 110.99C110.371 110.68 110.44 110.38 110.44 110.08C110.44 109.71 110.321 109.43 110.073 109.22C109.826 109.02 109.469 108.91 109.013 108.91C108.557 108.91 108.14 109.03 107.744 109.27C107.347 109.51 107.05 109.85 106.842 110.29L103.095 108.41C103.66 107.35 104.482 106.52 105.563 105.9C106.644 105.29 107.952 104.98 109.479 104.98C110.648 104.98 111.679 105.17 112.581 105.55C113.483 105.93 114.187 106.47 114.693 107.18C115.198 107.89 115.456 108.7 115.456 109.61C115.456 110.43 115.288 111.19 114.941 111.91C114.594 112.62 113.93 113.43 112.928 114.33L110.817 116.26H115.793H115.773Z" fill="#6BBA1A"/>
<path d="M42.9429 56.5599C42.9429 56.5599 42.9429 56.6099 42.9429 56.6299C43.379 60.8499 41.4163 68.7899 45.5896 73.1799C48.8609 76.6199 52.7468 76.0099 54.8186 75.5699C53.7678 68.5399 46.8387 60.6799 46.8387 60.6799C46.8387 60.6799 54.085 65.9899 57.396 73.8799C58.2287 71.6199 59.4281 67.2699 57.8619 64.0499C55.1755 58.5199 46.7792 58.2399 42.9429 56.5399V56.5599Z" fill="#6BBA1A"/>
<path d="M70.4711 57.45C70.4711 57.45 70.4414 57.47 70.4315 57.48C67.9929 59.28 62.3822 60.9299 61.1827 65.1399C60.241 68.4399 62.0352 70.6599 63.0563 71.7999C67.0115 68.5899 69.3411 61.3899 69.3411 61.3899C69.3411 61.3899 68.6967 67.8599 65.0289 72.8099C66.7241 72.5099 69.8367 71.6899 71.2543 69.5399C73.6929 65.8499 70.8181 60.47 70.4711 57.45Z" fill="#6BBA1A"/>
</svg>
