<svg width="25" height="24" viewBox="0 0 25 24" fill="none" xmlns="http://www.w3.org/2000/svg">
<path d="M14.8121 10.7231V0H25V10.7231C25 14.2166 24.0508 17.2051 22.1425 19.6688C20.5472 21.8295 18.1037 23.0916 14.8121 23.445V18.1239C16.2055 18.1239 17.4374 17.6393 18.5177 16.6599C19.8 15.63 20.4463 13.6512 20.4463 10.7231H14.8121ZM0 10.7231V0H10.1878V10.1879C10.1878 13.8935 9.25885 17.0033 7.41111 19.5275C5.76531 21.7893 3.3017 23.1018 0.0101068 23.4652V18.1441C1.45397 18.1441 2.70598 17.6595 3.78635 16.6801C5.01817 15.6503 5.63404 13.6714 5.63404 10.7433H0V10.7231Z" fill="url(#paint0_linear_12_72)"/>
<defs>
<linearGradient id="paint0_linear_12_72" x1="20.5977" y1="0.383684" x2="2.49396" y2="18.4875" gradientUnits="userSpaceOnUse">
<stop stop-color="#3472BF"/>
<stop offset="1" stop-color="#E0C231"/>
</linearGradient>
</defs>
</svg>
