<svg width="119" height="108" viewBox="0 0 119 108" fill="none" xmlns="http://www.w3.org/2000/svg">
<path d="M109.95 99.1301C109.63 99.4501 110.26 104.06 109.95 105.17C109.83 105.62 108.12 106.77 107.73 107.39H91.84C89.05 105.31 89.59 102.41 89.62 99.1301H29.24C29.15 100.05 29.38 101.11 29.24 101.99C29.2 102.23 28.65 102.38 28.6 102.63C28.45 103.39 28.74 104.4 28.6 105.17C28.55 105.42 27.62 105.74 27.96 106.76L26.37 107.4H9.84999C7.05999 105.32 7.6 102.42 7.63 99.1401C4.73 99.3301 2.46 99.2802 0.639999 96.9202L0 94.3801V6.04004C1.17 5.33004 0.359999 3.88011 0.639999 2.86011C0.679999 2.71011 2.71 0.680137 2.86 0.640137C3.48 0.460137 4.24 0.96 4.77 0H114.09C114.61 0.95 115.37 0.460137 116 0.640137C116.88 0.890137 117.62 2.92 118.22 3.5V95.6602C117.5 95.9802 117.7 96.7402 117.58 96.9302C116.07 99.4702 112.68 99.2701 109.95 99.1501V99.1301ZM114.4 3.80005H3.81V10.79H114.4V3.80005ZM57.2 14.6101H3.81V95.3301H57.2V14.6101ZM114.4 14.6101H61.01V95.3301H114.4V14.6101ZM25.42 99.1301H11.44V103.58H24.47L25.42 102.63V99.1301ZM106.13 99.1301H93.42V103.58H106.13V99.1301ZM48.62 66.0901L50.21 64.5V42.26C49.68 40.68 46.4 40.1201 46.4 41.6201V65.4502L48.62 66.0901ZM85.8 43.2102C85.68 43.3202 85.19 43.0702 84.85 43.2102C84.12 43.5102 80.28 46.6401 80.08 47.3401C79.97 47.7401 80.2 48.2301 80.08 48.6101C80 48.8701 79.49 49.01 79.44 49.25C79.16 50.8 79.97 52.55 78.8 54.02L82.93 52.1101C84.8 52.6001 86.4 51.1 88.01 51.47C88.26 51.53 88.41 52.0601 88.65 52.1101C90.07 52.3601 91.7 52.24 93.1 52.75C93.46 52.88 95.15 54.22 95.32 54.02V49.8901C94.35 49.3901 94.88 48.49 94.68 47.98C94.58 47.73 94.17 47.6101 94.04 47.3401C93.95 47.1501 94.12 46.8402 94.04 46.7002C93.81 46.3102 92.23 44.75 91.82 44.48C91.68 44.38 91.34 44.58 91.18 44.48C90.58 44.09 89.09 43.3501 88.96 42.8901C88.41 41.0601 90.3 40.3102 91.82 40.6702C92.05 40.7202 92.18 41.1801 92.46 41.3101C92.66 41.4001 92.96 41.2301 93.1 41.3101C93.63 41.6201 96.85 44.8702 97.23 45.4402C97.32 45.5802 97.13 45.9101 97.23 46.0801C97.47 46.4901 98.46 47.78 98.5 47.99C98.74 49.08 98.26 50.72 98.5 51.8C98.56 52.06 99.37 52.2301 99.14 53.0701C99.07 53.3201 98.56 53.4602 98.5 53.7102C98.35 54.3302 98.59 55.2302 98.5 55.9302C99.75 55.5302 100.18 56.3301 100.72 56.5701C102.84 57.4601 104.71 58.1201 106.12 60.0701C106.31 60.3301 106.46 61.57 107.39 61.98L108.66 68.3401L107.71 69.9302L105.49 70.5701L105.17 68.6602L104.85 64.53L102.94 61.03L98.49 59.1201C98.31 60.3801 98.74 62.1 98.49 63.25C98.44 63.46 96.82 66.7101 96.58 67.0601C95.25 69.0701 92.1 71.24 90.22 72.78C92.35 74.36 94.87 75.9301 97.53 75.6401L101.98 73.73L103.57 75.3201L100.71 78.1802C99.71 77.7402 98.99 78.7801 98.8 78.8201C97.85 78.9901 94.67 78.9901 93.72 78.8201C93.53 78.7901 92.81 77.7402 91.81 78.1802L87.36 75C86.86 75.95 85.94 76 85.45 76.27C84.77 76.65 82.73 78.0802 82.27 78.1802C81.39 78.3702 76.14 78.3702 75.28 78.1802C75.05 78.1302 74.92 77.67 74.64 77.54C74.44 77.45 74.14 77.62 74 77.54C72.54 76.67 70.65 74.4001 72.73 73.0901C73 73.0201 74.27 73.55 74.64 73.73C75.04 73.92 76.32 74.95 76.55 75C79.21 75.58 82.5 74.68 84.49 72.78C83.54 72.08 82.57 71.2401 81.63 70.5601C80.59 69.8001 79.07 69.1102 78.13 67.7002C77.63 66.9502 75.75 62.67 75.59 61.98C75.44 61.36 75.68 60.46 75.59 59.76C72.84 59.88 72.1 62.1301 70.51 63.8901L69.87 70.5601C66.31 71.3901 66.18 68.0402 66.69 65.1602C66.73 64.9202 67.25 64.78 67.33 64.52C67.63 63.45 67.9 61.7702 68.6 60.7102C68.95 60.1902 71.61 57.5002 72.1 57.2102C72.24 57.1302 72.54 57.3002 72.74 57.2102C73.67 56.7802 73.99 56.8101 74.65 56.5701C75.02 56.4401 75.19 55.6002 76.24 55.9302C75.45 54.5002 75.3 51.5901 75.6 49.8901C75.64 49.6501 76.17 49.51 76.24 49.25C76.47 48.33 76.61 46.9601 76.88 46.0701C76.97 45.7701 77.86 45.23 78.15 44.8C78.25 44.65 78.05 44.3002 78.15 44.1602C79.13 42.8102 80.42 42.0201 81.65 41.3C83.87 39.99 84.48 39.1501 86.42 41.6201L85.78 43.2102H85.8ZM93.42 56.55L89.92 55.28H84.84L81.98 56.8701L87.38 59.73L91.83 57.8201L93.42 56.55ZM85.8 62.27C84.44 63.12 79.06 58.7901 78.81 59.0901L80.72 65.1301L85.49 69.26L85.81 62.27H85.8ZM89.61 68.6301C91.87 68.0901 92.63 66.05 94.06 64.5L95.33 59.73L89.61 63.23V68.6301Z" fill="#4D8884"/>
</svg>
