<svg width="93" height="111" viewBox="0 0 93 111" fill="none" xmlns="http://www.w3.org/2000/svg">
<path d="M38.22 99.8176C37.27 100.078 37.56 101.367 37.42 101.687C36.73 103.227 34.29 106.268 32.89 107.288C32.78 107.368 32.48 107.198 32.36 107.288C32 107.538 31.55 108.277 31.29 108.357C30.29 108.657 28.79 108.647 28.09 109.427H22.76L21.16 108.897C19.12 107.677 17.08 106.927 15.56 104.897C15.48 104.787 15.65 104.487 15.56 104.367C15 103.567 13.69 102.127 13.43 101.167C13.31 100.727 13.54 100.048 13.43 99.5676C13.38 99.3576 12.93 99.2276 12.9 99.0376C12.77 98.1376 12.75 95.6276 12.9 94.7676C12.94 94.5676 13.37 94.4475 13.43 94.2375C13.53 93.8975 13.32 93.4675 13.43 93.1675C14.19 91.1075 16.65 87.8475 18.5 86.4975C19.33 85.8975 20.42 85.7375 21.17 85.4275C21.51 85.2875 21.62 84.6174 22.5 84.8974C22.43 84.2974 22.61 83.5776 22.5 83.0276C22.14 81.2676 21.55 78.3674 21.43 76.6274C20.48 62.2774 20 47.9475 18.23 33.9675C17.28 26.5075 16.22 19.2374 14.5 12.1074C14.27 11.1474 13.81 9.85746 13.43 8.90746C12.76 7.22746 12.07 5.41743 10.5 4.37743C10.39 4.29743 10.11 4.45743 9.97001 4.37743C9.63 4.17743 8.54003 3.3476 8.37003 3.3076C6.04003 2.8076 4.23002 4.34754 3.30002 6.23754C3.00002 7.54754 3.69999 7.91742 3.82999 8.36742C3.92999 8.70742 3.70999 9.14749 3.82999 9.43749C3.90999 9.64749 4.26002 9.74752 4.36002 9.96752C4.44002 10.1375 4.29002 10.3975 4.36002 10.4975C4.86002 11.2875 5.53004 11.1776 5.69004 11.2976C6.05004 11.5576 6.51004 12.2974 6.76004 12.3674C7.40004 12.5474 8.02002 12.8074 8.36002 12.8974C8.99002 13.0674 10.45 12.6175 10.76 13.6975C10.86 14.0275 10.66 14.4476 10.76 14.7676C11.23 16.2276 11.07 16.6075 11.29 17.9675C12.2 23.3675 14.02 29.1075 15.02 34.4975C15.17 35.2975 15.13 37.1575 14.22 37.4275C13.39 37.6675 11.97 36.6576 11.82 36.0976C11.7 35.6476 11.93 34.9775 11.82 34.4975C10.57 29.0975 9.17 23.3875 8.09 17.9675C7.98 17.4175 8.16 16.6976 8.09 16.0976C7.21 16.3676 7.13004 15.7376 6.76004 15.5676C4.70004 14.6076 3.12004 14.0676 1.69004 12.0976C1.61004 11.9876 1.78004 11.6876 1.69004 11.5676C1.44004 11.2076 0.690029 10.7475 0.620029 10.4975C0.520029 10.1675 0.720029 9.74748 0.620029 9.42748C0.550029 9.20748 0.12 9.08745 0.09 8.89745C-0.03 8.23745 -0.03 6.3575 0.09 5.6975C0.12 5.4975 0.550029 5.38747 0.620029 5.16747C0.720029 4.84747 0.520029 4.43764 0.620029 4.09764C0.720029 3.73764 1.94 2.99755 2.22 2.49755C2.36 2.24755 2.12 1.7975 2.22 1.6975C2.32 1.5975 2.76999 1.8375 3.01999 1.6975C3.38999 1.4975 3.81 0.707429 4.09 0.627429C4.42 0.527429 4.84001 0.727429 5.16001 0.627429C5.38001 0.557429 5.50004 0.127644 5.69004 0.0976438C6.36004 -0.0223562 8.80002 -0.0423562 9.42002 0.0976438C9.61002 0.137644 9.72999 0.537429 9.94999 0.627429C10.31 0.767429 11.33 1.01746 11.55 1.15746C12.6 1.85746 15.7 5.25753 16.08 6.22753C16.19 7.03753 16.39 8.12745 16.61 8.89745C17.57 12.1374 18.61 15.6876 19.28 19.0276C19.39 19.5776 19.21 20.2974 19.28 20.8974L20.08 20.3674H88.87C89.31 21.1674 89.95 20.7474 90.47 20.8974C90.6 20.9374 92.19 22.5176 92.34 22.7676C92.41 22.8776 92.26 23.1376 92.34 23.2976C92.45 23.5276 92.83 23.6376 92.87 23.8276C93.02 24.4776 93.03 29.6675 92.87 30.2275C92.8 30.4975 92.01 30.9276 91.8 31.2976C91.66 31.5476 91.9 31.9976 91.8 32.0976C91.7 32.1976 91.25 31.9576 91 32.0976C88.94 33.2476 89.86 35.6775 89.67 37.6975C88.5 49.9775 86.42 62.7476 85.4 75.0276C84.93 80.7276 85.05 86.9976 83.27 92.0976C83.07 92.6676 82.93 93.0075 82.74 93.6975C82.67 93.9475 81.92 94.3976 81.67 94.7676C81.58 94.8976 81.75 95.1876 81.67 95.2976C80.6 96.7676 78.61 98.1276 77.14 98.7676L75.01 99.8376H69.41V106.238L73.68 106.768L74.21 108.098L72.88 109.968C72.03 109.868 71.01 110.108 70.21 109.968C70.01 109.928 69.89 109.487 69.68 109.437C69.33 109.347 68.91 109.547 68.61 109.437C68.4 109.357 68.3 108.997 68.08 108.907C67.79 108.787 67.37 108.997 67.28 108.907C67.18 108.807 67.42 108.357 67.28 108.107C67.08 107.737 66.29 107.308 66.21 107.038C65.74 105.318 66.56 101.818 66.21 99.8376H38.21L38.22 99.8176ZM89.69 23.5576H19.83V29.9575H89.69V23.5576ZM86.49 33.1575H21.43L25.7 84.3574C26.56 84.0674 26.82 84.8574 27.03 84.8874C28.16 85.0874 29.65 84.9775 30.76 85.4175C31.19 85.5875 33.1 86.7776 33.43 87.0176C35.21 88.3476 36.59 91.0474 37.43 93.1474C37.52 93.3774 37.92 93.4875 37.96 93.6775C38.14 94.4975 37.84 95.7074 37.96 96.6074H74.49C74.92 95.9274 76.2 95.8276 76.62 95.5376C77.12 95.2076 79.22 93.1074 79.55 92.6074C79.69 92.3974 80.54 90.6675 80.62 90.4775C81.65 87.6675 81.43 84.0374 81.69 80.8774C82.7 68.5874 84.82 55.8576 85.96 43.5476C86.11 41.9476 86.4 40.0075 86.49 38.7475C86.63 36.9075 86.39 34.9874 86.49 33.1474V33.1575ZM24.36 87.5476C24.15 87.5876 23.24 88.5176 22.23 88.0776L18.23 91.0076L16.63 93.6775C16.68 95.3675 15.77 96.6575 16.1 98.4775L17.17 101.677L20.64 105.147L23.31 106.218H27.58L31.85 104.088C32.93 102.878 33.67 101.558 34.25 100.088C34.34 99.8576 34.74 99.7476 34.78 99.5576C34.94 98.8376 34.92 95.5476 34.78 94.7576C34.74 94.5576 34.31 94.4375 34.25 94.2275C34.15 93.8775 34.37 93.4475 34.25 93.1575C34.17 92.9475 33.82 92.8474 33.72 92.6274C33.64 92.4674 33.79 92.2076 33.72 92.0976C33.48 91.6976 31.22 89.4575 30.79 89.1675C30.57 89.0275 29.56 88.7674 29.19 88.6374C28.97 88.5574 28.86 88.1574 28.66 88.1074C28.21 87.9874 27.54 88.2174 27.06 88.1074C26.85 88.0574 26.73 87.6076 26.53 87.5776C26.05 87.4876 24.88 87.4876 24.4 87.5776L24.36 87.5476ZM64.09 51.0176C63.04 48.0676 61.36 45.7376 59.56 43.2876C58.82 43.5876 58.37 42.3375 57.96 42.2175C57.63 42.1175 57.21 42.3175 56.89 42.2175C56.67 42.1475 56.55 41.7175 56.36 41.6875C55.55 41.5475 54.5 41.8275 53.69 41.6875C53.49 41.6475 53.38 41.2175 53.16 41.1575C52.12 40.8375 51.71 41.6675 51.56 41.6875C50.91 41.8075 50.04 41.5475 49.43 41.6875C49.24 41.7275 49.13 42.1175 48.9 42.2175C48.73 42.2975 48.48 42.1475 48.37 42.2175C47.8 42.5575 45.41 45.0375 44.9 45.6875C44.82 45.7975 44.99 46.1075 44.9 46.2175L41.7 50.4875V52.0876C42.87 53.6276 43.97 52.7776 44.9 51.5576C45.6 50.6376 46.33 48.7276 47.03 47.8276C47.48 47.2476 49.45 45.1974 49.96 44.8974C50.07 44.8274 50.33 44.9775 50.49 44.8974C50.72 44.7874 50.83 44.4074 51.02 44.3674C51.62 44.2374 53.55 44.2674 54.22 44.3674C54.38 44.3874 55.37 45.3475 56.35 44.8974C57.11 45.5275 58.13 45.7976 58.75 46.7676C58.83 46.8876 58.67 47.1676 58.75 47.2976C60.13 49.5976 61.1 52.0175 62.48 54.2275L59.01 54.4975C57.85 55.1075 58.02 56.8875 59.01 57.1675C59.46 57.2875 60.13 57.0575 60.61 57.1675C60.82 57.2175 60.95 57.6675 61.14 57.6975C61.99 57.8175 65.82 57.8775 66.47 57.6975C67.38 57.4475 67.34 54.9475 68.34 54.2275L69.41 49.9575C68.73 48.9275 67.85 49.1175 66.74 49.1575L65.67 52.8874L64.07 51.0176H64.09ZM67.02 80.0776C67.2 80.0776 67.34 79.5876 67.55 79.5476C68.03 79.4376 68.71 79.6676 69.15 79.5476C69.35 79.4976 69.46 79.1176 69.68 79.0176C69.85 78.9376 70.1 79.0876 70.21 79.0176C70.56 78.8076 72.93 76.4376 73.14 76.0876C73.21 75.9676 73.06 75.7176 73.14 75.5576C73.24 75.3376 73.59 75.2376 73.67 75.0276C73.79 74.7376 73.57 74.3075 73.67 73.9575C73.73 73.7375 74.17 73.6175 74.2 73.4275C74.34 72.6375 74.36 69.3674 74.2 68.6274C74.16 68.4374 73.29 67.3576 73.13 67.0276C73.01 66.7576 73.23 66.3175 73.13 65.9575C73.05 65.6775 72.25 65.2574 72.06 64.8874C71.7 64.1974 71.37 62.8075 70.99 62.2175C69.95 60.5975 68.67 61.6175 67.79 62.7475L70.99 69.1474C70.81 70.4374 71.25 72.2475 70.99 73.4175C70.95 73.6075 70.56 73.7175 70.46 73.9475C70.38 74.1175 70.53 74.3675 70.46 74.4775C70.29 74.7675 68.89 76.1676 68.59 76.3476C68.48 76.4176 68.22 76.2676 68.06 76.3476C67.82 76.4576 67.69 76.8774 67.53 76.8774H58.2C59.76 74.8974 61.96 73.4676 58.47 72.0776L53.4 77.1474V79.2776C54.54 79.9976 57.65 84.0976 58.47 84.3476C60.16 84.8576 60.6 82.9975 60.34 81.6775C59.4 81.8475 58.59 80.9576 58.21 80.0776H67.01H67.02ZM48.36 80.0776C49.55 80.0776 49.24 77.2674 47.83 76.8774C45.94 76.3574 42.03 77.2674 39.83 76.8774C39.63 76.8474 39.52 76.4176 39.3 76.3476C38.98 76.2476 38.57 76.4476 38.23 76.3476C37.26 76.0676 36.2 73.8274 35.83 72.8774C35.74 72.6474 35.34 72.5376 35.3 72.3476C35.17 71.7776 35.19 69.7574 35.3 69.1474C35.34 68.9474 35.77 68.8274 35.83 68.6174C35.93 68.2774 35.72 67.8476 35.83 67.5476C36.17 66.6376 37.44 64.6176 37.96 63.8176C38.42 63.1076 39.31 62.1875 39.83 61.4175L41.16 64.3476L42.49 65.1474L43.82 63.8176L41.69 57.6875C40.83 57.9775 40.57 57.1875 40.36 57.1575C39.5 57.0075 34.68 56.9775 33.96 57.1575C32.92 57.4275 32.51 60.0874 34.49 60.3574C35.2 60.4574 36.46 60.0374 36.89 60.6274L33.16 65.9575C33.53 66.7975 32.65 67.3976 32.63 67.5576C32.45 68.5476 32.45 72.4275 32.63 73.4275C32.66 73.6275 33.09 73.7375 33.16 73.9575C33.26 74.2775 33.06 74.6876 33.16 75.0276C33.23 75.2776 33.98 75.7276 34.23 76.0976C34.32 76.2276 34.15 76.5174 34.23 76.6274C34.54 77.0574 35.68 78.2175 36.1 78.4975C36.32 78.6475 37.36 78.8776 37.7 79.0276C37.92 79.1276 38.03 79.4876 38.23 79.5576C38.53 79.6676 38.96 79.4576 39.3 79.5576C39.52 79.6176 39.64 80.0576 39.83 80.0876H48.36V80.0776ZM23.29 92.8774C21.76 94.1974 20.42 95.8375 20.89 97.9475C20.93 98.1375 21.32 98.2475 21.42 98.4775C21.5 98.6475 21.35 98.8976 21.42 99.0076C21.88 99.7876 23.23 100.597 23.82 101.407C24.8 101.267 26.13 101.607 27.02 101.407C27.21 101.367 27.32 100.977 27.55 100.877C27.72 100.797 27.97 100.947 28.08 100.877C28.33 100.727 29.91 99.1376 29.95 99.0076C30.34 97.6076 29.95 94.2575 28.62 93.4075C28.38 93.2575 27.39 93.0074 27.02 92.8774C26.47 92.6774 26.15 92.0476 24.89 92.3476C24.69 92.3976 24.16 93.2474 23.29 92.8774Z" fill="#4D8884"/>
</svg>
