<svg width="86" height="110" viewBox="0 0 86 110" fill="none" xmlns="http://www.w3.org/2000/svg">
<path d="M59.2 9.46129H79.58C80.01 10.2913 80.78 9.83133 81.21 10.0013C81.42 10.0813 81.53 10.4414 81.75 10.5414C81.92 10.6214 82.18 10.4714 82.29 10.5414C82.66 10.7614 84.47 12.5813 84.74 12.9913C84.82 13.1113 84.66 13.3914 84.74 13.5314C84.95 13.8814 85.79 14.9812 85.83 15.1612C86.33 17.4912 85.46 21.3114 85.83 23.8514L84.47 25.2113H80.39C80.3 27.0913 80.52 29.0413 80.39 30.9213C78.9 52.1213 75.99 73.8814 74.41 95.0414C74.28 96.7714 74.65 98.8413 74.41 100.471C74.38 100.671 73.91 100.801 73.87 101.011C73.66 102.041 73.6 103.221 73.33 104.271C72.13 105.451 71.32 107.331 69.8 108.351C69.68 108.431 69.4 108.271 69.26 108.351C68.85 108.591 67.97 109.311 67.63 109.441C67.17 109.611 66.44 109.151 66 109.981H19.82C19.32 109.061 18.38 109.641 17.65 109.441C17.45 109.381 17.34 109.001 17.11 108.901C16.94 108.821 16.68 108.971 16.57 108.901C16.18 108.671 13.27 105.761 13.04 105.371C12.97 105.251 13.12 104.991 13.04 104.831C12.94 104.611 12.58 104.501 12.5 104.291C12.38 104.001 12.6 103.551 12.5 103.201C12.44 102.981 11.99 102.861 11.96 102.661C11.81 101.841 12.09 100.791 11.96 99.9413C11.03 93.7513 10.25 86.6215 9.79001 80.3815C8.50001 63.0615 7.35 45.8113 5.44 28.7613C5.31 27.6413 5.53 26.3713 5.44 25.2313H1.36002L0 23.8715V16.2613L2.17001 11.6415L6.79001 9.4713H26.08C26.21 8.3613 25.89 6.98127 26.08 5.94127C26.12 5.74127 26.55 5.62148 26.62 5.40148C26.72 5.08148 26.52 4.65139 26.62 4.31139C26.74 3.89139 28.01 3.43126 27.71 2.68126C28.21 2.40126 29.97 0.831363 30.16 0.781363C30.74 0.621363 31.67 0.901363 32.33 0.781363C32.54 0.741363 32.67 0.261323 32.87 0.241323C39.05 -0.518677 46.63 0.811323 52.97 0.241323C53.47 1.16132 54.41 0.581363 55.14 0.781363C55.34 0.841363 55.45 1.2214 55.68 1.3214C55.85 1.4014 56.11 1.2514 56.22 1.3214C56.55 1.5214 58.47 3.43135 58.67 3.77135C58.74 3.89135 58.59 4.14139 58.67 4.31139C58.78 4.55139 59.17 4.66143 59.21 4.85143C59.41 5.75143 58.98 9.2413 59.21 9.4713L59.2 9.46129ZM56.49 9.46129C56.42 8.85129 56.6 8.11139 56.49 7.56139C56.45 7.35139 56 7.23135 55.95 7.02135C55.84 6.54135 56.08 5.84147 55.95 5.39147C55.63 4.24147 53.59 4.13132 52.96 3.49132H32.31C31.73 3.95132 29.53 5.20127 29.32 5.94127C29.07 6.84127 29.49 8.4413 29.32 9.4713H56.49V9.46129ZM3.23999 21.9613H82.57C82.33 20.2613 82.91 17.8213 82.57 16.2513C82.46 15.7413 81.17 14.6414 81.48 13.8014L79.03 12.7113H6.76001C6.17001 13.1813 3.98999 14.4012 3.76999 15.1612C3.66999 15.5012 3.86999 15.9213 3.76999 16.2513C3.69999 16.4813 3.26001 16.5914 3.23001 16.7914C2.96001 18.3014 3.42001 20.3613 3.23001 21.9513L3.23999 21.9613ZM77.68 25.2213H8.67001C8.76001 26.5513 8.54001 27.9914 8.67001 29.3014C10.58 48.5814 12.24 67.9013 13.56 87.4413C13.69 89.3613 14.49 92.5813 14.65 94.5013C14.83 96.6713 14.84 97.9113 15.19 99.9313C15.31 100.601 15.05 101.471 15.19 102.101C15.23 102.281 16.07 103.381 16.28 103.731C16.36 103.871 16.2 104.151 16.28 104.271C16.46 104.551 17.37 105.471 17.64 105.631C17.76 105.701 18.02 105.551 18.18 105.631C18.4 105.731 18.51 106.091 18.72 106.171C19.15 106.341 19.92 105.881 20.35 106.711H65.45C65.9 105.901 66.55 106.321 67.08 106.171C67.28 106.111 69.02 104.551 69.53 104.271C69.46 103.491 70.43 102.591 70.62 102.101C70.73 101.791 70.52 101.361 70.62 101.011C70.68 100.791 71.13 100.671 71.16 100.471C71.73 97.2813 71.45 92.4914 71.7 89.0614C73.1 70.2814 75.75 50.7913 77.13 32.0113C77.3 29.7613 76.63 27.2113 77.67 25.2213H77.68ZM37.74 80.1014C38.81 80.1014 38.81 76.8414 37.74 76.8414H27.96C27.79 76.8414 27.65 76.3714 27.42 76.3014C27.1 76.2014 26.67 76.4014 26.33 76.3014C25.59 76.0914 23.79 73.4314 23.34 72.7714C23.17 71.3314 22.5 70.0913 22.8 68.4213C22.84 68.2213 23.28 68.1015 23.34 67.8815C23.44 67.5315 23.23 67.1014 23.34 66.7914C23.61 66.0714 24.56 64.8514 24.97 64.0714C25.43 63.1914 26.07 61.6514 26.6 60.8114C27.04 60.1114 27.99 59.1414 28.5 58.3614L30.67 62.7113C31.74 62.7913 32.47 62.8415 33.12 61.8915L30.4 54.5514C28.88 54.9214 27.72 53.6813 26.32 54.0113C26.1 54.0613 25.98 54.5214 25.78 54.5514C23.42 54.8914 19.58 53.3614 20.89 57.2714L21.43 57.8114L24.96 58.0814L20.61 64.6014C20.86 65.6514 19.63 67.2514 19.52 67.8614C19.39 68.6114 19.39 70.9212 19.52 71.6612C19.56 71.8612 20 71.9813 20.06 72.2013C20.16 72.5513 19.95 72.9814 20.06 73.2914C20.2 73.6814 20.94 75.0913 21.15 75.4613C21.46 76.0113 22.46 76.3014 22.24 77.0914L25.77 79.5414C26.62 79.1614 27.24 80.0614 27.4 80.0814H37.72L37.74 80.1014ZM55.4 47.2313C54.54 45.6313 53.48 43.0014 52.68 41.8014C51.71 40.3414 49.38 38.6413 48.06 37.7213L46.43 37.1813H39.37L35.29 40.1713L30.4 47.7814L32.3 49.6813C32.58 48.9813 33.61 49.1915 33.66 49.1415C33.76 49.0315 33.52 48.5814 33.66 48.3214C34.5 46.8114 36.46 45.1113 36.92 43.4313L39.91 40.4413H46.43C47.5 41.1713 49.16 42.2213 49.96 43.4313C50.04 43.5513 49.88 43.8413 49.96 43.9713C51.39 46.3013 52.34 48.7914 53.76 51.0314C52.99 52.0314 51.59 50.8213 51.31 50.7613C50.15 50.4913 47.97 51.5312 48.32 52.6612C48.82 54.2612 50.81 53.8314 51.85 54.0214C52.06 54.0614 52.19 54.5414 52.39 54.5614C53.85 54.7414 55.75 54.0614 56.74 55.1014L59.19 52.6515L61.36 46.6713C60.66 45.9913 60.07 44.9714 58.91 45.3114C58.27 45.5014 56.77 48.7112 57.01 49.6612C55.82 49.3912 55.77 47.9313 55.38 47.2113L55.4 47.2313ZM58.93 80.1014L63.28 77.9313C64.38 76.7013 65.13 75.3514 65.73 73.8514C65.82 73.6214 66.23 73.5114 66.27 73.3114C66.45 72.4814 66.43 68.2414 66.27 67.3314C66.23 67.1314 65.79 67.0114 65.73 66.7914C65.23 65.0114 64 61.8214 63.01 60.2714C62.71 59.8013 62.02 59.3912 61.65 58.9112L59.75 59.4513C59.83 60.0513 59.63 60.8114 59.75 61.3514C59.99 62.4214 62 64.9713 62.47 66.2413C62.58 66.5313 63 67.7815 63.01 67.8715C63.15 68.6615 63.17 72.0313 63.01 72.7613C62.97 72.9513 62.57 73.0714 62.47 73.3014C62.39 73.4714 62.54 73.7314 62.47 73.8414C62.3 74.1314 60.19 76.2414 60.02 76.2914C59.68 76.3914 59.26 76.1914 58.93 76.2914C58.7 76.3614 58.56 76.8314 58.39 76.8314H47.79C48.68 75.2814 51.17 75.2213 50.51 72.7513C50.03 72.1213 49.43 71.6713 48.61 71.9313C48.4 72.0013 48.29 72.3813 48.07 72.4713C47.78 72.5913 47.35 72.3813 47.25 72.4713C47.15 72.5713 47.39 73.0314 47.25 73.2914C46.66 74.3614 43.1 76.9315 42.9 77.6415C42.82 77.9315 42.82 78.9814 42.9 79.2714C43.12 80.0914 47.84 83.7713 48.61 84.9813L51.06 84.4413C51.79 81.7513 49.27 82.0014 48.34 80.0914H58.94L58.93 80.1014Z" fill="#4D8884"/>
</svg>
