<svg width="108" height="108" viewBox="0 0 108 108" fill="none" xmlns="http://www.w3.org/2000/svg">
<path d="M108 54C108 83.82 83.82 108 54 108C24.18 108 0 83.82 0 54C0 24.18 24.18 0 54 0C83.82 0 108 24.18 108 54ZM104.21 54C104.21 26.27 81.73 3.79004 54 3.79004C26.27 3.79004 3.78998 26.27 3.78998 54C3.78998 81.73 26.27 104.21 54 104.21C81.73 104.21 104.21 81.73 104.21 54ZM58.16 35.95C58.04 35.83 57.51 36.1199 57.21 35.95C56.77 35.7099 56.26 34.7699 55.94 34.6799C53.58 34.0299 51.94 35.1199 50.55 36.8999L49.92 40.0701C47.53 42.6601 43.54 41.3699 40.09 41.6599L37.87 38.8101C39.1 37.8201 38.24 35.8499 38.5 34.3699C38.63 33.6599 40.06 31.7801 39.77 30.5601C41.34 28.8601 43.09 25.91 45.16 24.53C45.53 24.28 48.43 22.8199 48.97 22.6299C49.33 22.4999 49.83 22.7499 50.24 22.6299C50.5 22.5599 50.64 22.04 50.87 22C52.16 21.77 56.5 21.8 57.85 22C58.08 22.03 58.24 22.5799 58.48 22.6299C59.06 22.7599 59.85 22.4899 60.38 22.6299C61.48 22.9299 63.21 24.4799 64.19 25.1699C64.34 25.2699 64.7 25.0699 64.82 25.1699C65.56 25.7299 67.84 27.9499 68.31 28.6599C68.49 28.9299 68.76 30.2301 68.94 30.5601C69.19 31.0001 70.12 31.5001 70.21 31.8301C70.32 32.2301 70.09 32.7199 70.21 33.0999C70.29 33.3599 70.8 33.5 70.84 33.73C70.99 34.48 70.7 35.49 70.84 36.27C70.88 36.51 71.45 36.6699 71.47 36.8999C71.59 37.8899 71.59 39.71 71.47 40.71C71.44 40.94 70.88 41.0998 70.84 41.3398C70.7 42.1198 71 43.1399 70.84 43.8799C70.79 44.1099 69.76 45.39 69.57 45.78C69.42 46.1 69.69 46.6301 69.57 47.05C69.54 47.17 68.43 48.78 68.3 48.95C66.18 51.8699 60.1 57.2299 59.42 60.3699C59.07 61.9899 60.18 65.7199 57.83 66.3999C57.43 66.5099 56.94 66.2799 56.56 66.3999C56.3 66.4799 56.16 66.99 55.93 67.03C55 67.2 51.07 67.22 50.22 67.03C49.99 66.98 49.86 66.5199 49.59 66.3999C49.39 66.3099 49.09 66.4799 48.96 66.3999C48.43 66.0799 47.93 65.2201 47.37 64.8101V57.2C47.41 56.9599 47.93 56.8201 48 56.5701C48.44 55.0301 49 53.02 49.9 51.5C51.85 48.23 55.57 45.27 57.51 41.98C58.44 40.4 59.15 39.6 58.78 37.54C58.74 37.32 58.26 37.1799 58.15 36.9099C58.01 36.5699 58.26 36.07 58.15 35.96L58.16 35.95ZM55.63 63.23C55.76 62.13 55.44 60.78 55.63 59.74C56.28 56.1 62.1 50.49 64.51 47.05C65.2 46.07 66.75 44.34 67.05 43.24C67.19 42.71 66.92 41.9098 67.05 41.3398C67.1 41.0898 67.65 40.94 67.68 40.71C67.81 39.8 67.81 37.8099 67.68 36.8999C67.65 36.6699 67.1 36.51 67.05 36.27C66.92 35.69 67.19 34.8999 67.05 34.3699C66.99 34.1599 65.29 30.7701 65.15 30.5601C64.81 30.0501 63.46 28.7298 62.93 28.3398C62.8 28.2398 62.44 28.4398 62.3 28.3398C61.65 27.8798 60.57 26.6599 59.76 26.4399C59.23 26.2999 58.43 26.5599 57.86 26.4399C57.61 26.3899 57.46 25.8401 57.23 25.8101C55.49 25.5601 53.33 25.9901 51.52 25.8101L48.35 27.0801C45.78 29.2401 44.15 30.41 42.96 33.74C42.86 34.01 42.38 34.1399 42.33 34.3699C42.08 35.4999 42.72 36.6999 41.7 37.8599H46.77C46.16 35.3599 47.65 35.18 48.67 33.74C48.76 33.61 48.57 33.2699 48.67 33.1099C49.27 32.1599 50.53 31.92 51.52 31.52C51.79 31.41 51.92 30.9399 52.15 30.8899C52.87 30.7299 56.51 30.7299 57.22 30.8899C57.45 30.9399 57.58 31.4 57.85 31.52C58.05 31.61 58.35 31.44 58.48 31.52C58.86 31.74 61.9 34.77 61.97 35.01C62.08 35.41 61.85 35.9 61.97 36.28C62.05 36.54 62.56 36.6799 62.6 36.9099C62.74 37.6899 62.74 39.93 62.6 40.72C62.56 40.96 62.04 41.0999 61.97 41.3499C61.85 41.7599 62.11 42.2799 61.97 42.6199C60.66 45.9199 57.15 48.1799 54.99 50.8699C54.26 51.7699 52.23 54.8299 51.82 55.9399C51.62 56.4699 52.15 57.3298 51.19 57.8398V63.23H55.63ZM51.5 72.1099C52.17 71.9599 55.27 71.9599 55.94 72.1099C56.17 72.1599 56.3 72.64 56.57 72.74C57.91 73.27 59.23 73.66 60.06 74.96C60.15 75.1 59.96 75.4298 60.06 75.5898C60.3 75.9998 61.28 77.29 61.33 77.49C62.24 81.72 60.2 84.0999 57.21 86.6899C55.66 86.7599 54.58 87.6501 52.77 87.3201C52.53 87.2801 52.39 86.7599 52.14 86.6899C51.73 86.5699 51.22 86.8299 50.87 86.6899C50.62 86.5899 50.5 86.1801 50.24 86.0601C50.05 85.9701 49.74 86.1401 49.61 86.0601C48.29 85.2701 47.99 83.4701 46.76 82.5701C47.26 81.3301 45.97 79.9799 46.13 79.3999C46.2 79.1399 46.72 79.01 46.76 78.77C46.88 78.18 46.62 77.3899 46.76 76.8699C46.82 76.6399 47.27 76.51 47.39 76.24C47.48 76.04 47.31 75.7399 47.39 75.6099C47.62 75.2199 49.86 72.99 50.24 72.76C50.38 72.68 50.68 72.85 50.87 72.76C51.14 72.63 51.28 72.1799 51.5 72.1299V72.1099ZM52.77 75.9099L50.55 78.1299C50.09 81.2199 51.03 82.78 54.04 83.52C54.87 82.5 56.04 83.2799 56.89 81.9299C56.97 81.7999 56.8 81.5 56.89 81.3C57.02 81.0201 57.47 80.8899 57.52 80.6699C57.68 79.9499 57.41 78.9299 57.52 78.1299C56.04 76.4499 55.17 75.4699 52.76 75.9099H52.77Z" fill="#4D8884"/>
</svg>
