<?xml version="1.0" encoding="UTF-8"?><svg id="_層_1" xmlns="http://www.w3.org/2000/svg" viewBox="0 0 88 88"><defs><style>.cls-1,.cls-2{fill:#1bb71f;}.cls-2,.cls-3{fill-rule:evenodd;}.cls-3{fill:#fff;}</style></defs><rect class="cls-1" width="88" height="88"/><g><path class="cls-2" d="M22.74,8h42.53c8.1,0,14.74,6.63,14.74,14.74v42.53c0,8.1-6.63,14.74-14.74,14.74H22.74c-8.1,0-14.74-6.63-14.74-14.74V22.74c0-8.1,6.63-14.74,14.74-14.74Z"/><path class="cls-3" d="M43.93,19.93c14.59,0,26.42,9.47,26.42,21.15,0,4.08-1.44,7.89-3.94,11.12-.12,.18-.29,.39-.49,.61l-.02,.02c-.85,1.02-1.82,1.98-2.87,2.87-7.3,6.75-19.33,14.79-20.92,13.55-1.38-1.08,2.27-6.35-1.94-7.23-.29-.03-.59-.07-.88-.11h0c-12.37-1.76-21.77-10.41-21.77-20.83,0-11.68,11.83-21.15,26.42-21.15Z"/><path class="cls-2" d="M28.6,47.83h5.33c.76,0,1.38-.62,1.38-1.38v-.11c0-.76-.62-1.38-1.38-1.38h-3.83v-8.73c0-.76-.62-1.38-1.38-1.38h-.11c-.76,0-1.38,.62-1.38,1.38v10.22c0,.76,.62,1.38,1.38,1.38h0Zm33.01-6.4v-.11c0-.76-.62-1.38-1.38-1.38h-3.83v-2.18h3.83c.76,0,1.38-.62,1.38-1.38v-.11c0-.76-.62-1.38-1.38-1.38h-5.33c-.76,0-1.38,.62-1.38,1.38v10.22c0,.76,.62,1.38,1.38,1.38h5.33c.76,0,1.38-.62,1.38-1.38v-.11c0-.76-.62-1.38-1.38-1.38h-3.83v-2.18h3.83c.76,0,1.38-.62,1.38-1.38h0Zm-10.25,5.99h0c.25-.25,.4-.59,.4-.97v-10.22c0-.76-.62-1.38-1.38-1.38h-.11c-.76,0-1.38,.62-1.38,1.38v6l-4.98-6.68c-.24-.42-.69-.7-1.2-.7h-.11c-.76,0-1.38,.62-1.38,1.38v10.22c0,.76,.62,1.38,1.38,1.38h.11c.76,0,1.38-.62,1.38-1.38v-6.11l5.02,6.85s.06,.09,.1,.14h0c.14,.19,.33,.32,.54,.4,.16,.07,.34,.1,.52,.1h.11c.23,0,.45-.06,.64-.16,.14-.07,.25-.15,.34-.25h0Zm-13.57,.41h.11c.76,0,1.38-.62,1.38-1.38v-10.22c0-.76-.62-1.38-1.38-1.38h-.11c-.76,0-1.38,.62-1.38,1.38v10.22c0,.76,.62,1.38,1.38,1.38Z"/></g></svg>