<svg width="81" height="110" viewBox="0 0 81 110" fill="none" xmlns="http://www.w3.org/2000/svg">
<path d="M4.22939 64.9648C3.22939 65.2648 2.93937 64.6848 2.45937 64.4548C2.30937 64.3848 2.05936 64.5248 1.94936 64.4548C-0.730637 62.8648 0.399374 58.435 0.179374 55.595L2.45937 53.3149H77.8594C78.3694 53.9249 79.1394 53.8049 79.6294 54.5849C79.6994 54.6949 79.5494 54.955 79.6294 55.095C79.8094 55.425 80.6094 56.4447 80.6394 56.6147C80.7794 57.2747 80.7894 61.0248 80.6394 61.6748C80.5994 61.8548 80.2294 61.9648 80.1294 62.1848C79.3694 63.8448 78.4994 64.1648 77.0894 65.2248C76.4594 66.8548 76.7694 68.5049 76.5794 70.2849C75.5894 79.7449 73.7294 89.6847 72.5294 99.1247C72.2794 101.065 72.4994 103.575 71.5194 105.195C71.3094 105.545 70.7594 105.845 70.5094 106.205C70.4294 106.325 70.5894 106.605 70.5094 106.715C70.1694 107.175 69.1894 108.155 68.7394 108.485C68.6394 108.565 68.3494 108.405 68.2294 108.485C67.8794 108.715 67.4494 109.425 67.2194 109.495C66.7194 109.635 66.1194 109.245 65.6994 110.005H15.0894C14.6894 109.385 13.6194 109.305 13.0694 108.995C12.7294 108.805 12.4193 108.245 12.0593 107.985C11.9593 107.915 11.6794 108.065 11.5494 107.985C11.3694 107.865 9.94938 106.015 9.77938 105.705C9.64938 105.485 8.79937 103.795 8.76937 103.685C8.64937 103.265 8.86937 102.625 8.76937 102.165C8.37937 100.355 8.45936 99.4647 8.25936 97.6147C7.26936 88.1547 5.13937 78.2449 4.20937 68.7749C4.08937 67.5549 4.28937 66.2148 4.20937 64.9748L4.22939 64.9648ZM77.6094 55.855H2.70937V61.9248H77.6094V55.855ZM74.0694 64.9648H6.76937C7.67937 66.2448 7.10938 67.8049 7.27938 69.2649C8.35938 78.7249 10.3294 88.645 11.3294 98.105C11.5194 99.885 11.2094 101.535 11.8394 103.165C12.4894 104.085 13.5394 105.815 14.6194 106.455C14.7294 106.515 14.9694 106.385 15.1294 106.455C15.3494 106.555 15.4494 106.905 15.6394 106.965C16.3194 107.155 17.1994 106.615 17.6594 107.475H63.7094L68.0094 105.455L69.5294 102.165C70.7594 91.6348 71.9594 81.4049 73.0694 70.7849C73.1794 69.7349 73.3894 68.0148 73.5794 66.7348C73.5994 66.5748 74.4794 65.8448 74.0894 64.9648H74.0694ZM59.8994 0.694809C60.7094 0.97481 60.9694 0.2248 61.1694 0.1848C64.4894 -0.3952 69.2993 0.6148 72.8093 0.1848C73.0593 0.7548 73.6894 0.60481 73.8194 0.694809C74.1294 0.884809 75.0394 2.26483 75.0894 2.46483C75.2394 3.16483 75.2494 8.96491 75.0894 9.54491C75.0094 9.82491 74.1494 10.2749 74.0794 10.5549C73.5794 12.3849 75.5294 13.345 76.6094 14.605C76.6894 14.705 76.5294 15.0147 76.6094 15.1147C77.8294 16.5247 79.3794 17.5348 80.1494 19.1648V42.9448C79.5794 43.2048 79.7294 43.8048 79.6394 43.9548C78.8194 45.3248 77.0594 45.8648 75.8394 46.7348H58.6294C58.4494 46.6948 58.3394 46.3148 58.1194 46.2248C57.7794 46.0948 56.8094 45.8548 56.5994 45.7148C56.2894 45.5148 54.3694 43.5948 54.3194 43.4348C54.1794 42.9348 54.5693 42.3348 53.8093 41.9148V20.1548C54.5793 19.7548 54.1594 19.0347 54.3194 18.6348C54.3994 18.4347 54.7294 18.3347 54.8294 18.1247C55.6594 16.3347 57.1494 15.5949 58.3694 14.0749C58.4494 13.9749 58.2894 13.6749 58.3694 13.5649C59.0794 12.6649 59.9594 12.0749 60.3894 11.0349C59.0694 10.2549 59.5994 9.47487 59.3794 8.50487C59.3294 8.30487 58.8994 8.18486 58.8694 7.99486C58.7294 7.06486 58.7094 4.32481 58.8694 3.44481C58.8994 3.25481 59.3294 3.1448 59.3794 2.9348C59.4594 2.6048 59.2794 2.20479 59.3794 1.92479C59.4894 1.62479 60.1494 1.49477 59.8894 0.65477L59.8994 0.694809ZM72.0394 3.22484H62.4294C62.3194 4.79484 62.7994 6.45489 61.9194 7.77489H72.0394V3.22484ZM77.0994 22.4548C76.9894 21.7648 77.2594 20.7748 77.0994 20.1748C77.0394 19.9448 76.3194 19.5048 76.0894 19.1648C76.0094 19.0448 76.1694 18.7648 76.0894 18.6548C74.3994 16.3248 70.6894 14.7449 71.0294 11.5749L70.2694 10.8149H63.4394C63.8994 14.1649 60.1894 15.7448 58.3794 18.1548C58.2994 18.2548 58.4594 18.5448 58.3794 18.6648C57.9194 19.3048 57.2594 19.8848 56.8594 20.6848L57.3694 22.4548C58.8594 22.2748 60.7694 22.7048 62.1794 22.4548C64.1394 22.1048 66.8894 22.2448 69.2594 21.9448C71.8094 21.6248 73.6394 22.9648 76.0894 22.1948C76.7494 21.9848 76.5794 22.4148 77.0994 22.4448V22.4548ZM77.0994 25.4848H56.8594C56.7394 25.8848 57.3694 26.0849 57.3694 26.2449V36.1147H77.1094V25.4848H77.0994ZM77.0994 39.1548H56.8594C56.5994 41.4048 57.8094 42.7648 59.6394 43.7048H74.8194L77.0994 41.9348V39.1548ZM16.8794 39.6548V45.4748L15.6094 46.7449C15.2294 46.5349 13.8994 46.3048 13.8394 46.2348C13.7494 46.1448 13.9494 45.7448 13.8394 45.4748C13.7494 45.2548 13.3694 45.1448 13.3294 44.9648C13.1694 44.0348 13.5394 39.8548 13.3294 39.6548C12.4394 39.5648 11.3994 39.7848 10.5494 39.6548C10.1694 39.5948 8.54937 38.8348 8.01937 38.6448C6.26937 38.0048 6.22939 37.5947 4.97939 36.6247C4.86939 36.5347 4.56938 36.7047 4.46938 36.6247C2.68938 35.1747 1.86936 33.1849 0.669364 31.3149C0.319364 28.4149 -0.290615 24.3048 0.159385 21.1948C0.189385 21.0048 0.629364 20.8848 0.669364 20.6848C1.34936 17.3048 2.99938 13.4249 5.21938 10.5649C6.61938 8.76493 12.0394 3.27483 13.8194 1.96483C14.2694 1.63483 14.7494 1.75482 15.0894 1.20482C16.1594 1.66482 16.7694 2.56484 17.6194 3.22484C20.6994 5.63484 23.2394 8.40494 25.4594 11.5749C26.2694 12.7249 27.9993 14.8847 28.4993 16.1247C29.1493 17.7547 29.2294 19.6048 29.5094 21.1848C29.5394 21.3748 29.9894 21.5048 30.0194 21.6948C30.2094 23.2348 30.2394 27.2749 30.0194 28.7749C29.9894 28.9649 29.5594 29.0849 29.5094 29.2849C29.4094 29.7449 29.6294 30.3849 29.5094 30.8049C29.4594 30.9949 29.0793 31.1049 28.9993 31.3149C28.2093 33.4949 26.1494 36.3448 24.1894 37.6448C24.0794 37.7148 23.8094 37.5648 23.6794 37.6448C21.4694 39.0048 19.4894 39.9548 16.8494 39.6648L16.8794 39.6548ZM16.8794 36.6247C17.4494 36.5547 18.1294 36.7347 18.6494 36.6247C19.0794 36.5347 21.6194 35.435 22.1894 35.105C22.6994 34.815 22.9794 33.885 23.7094 34.095C24.7294 32.945 25.4294 31.6949 25.9894 30.2949C26.0794 30.0749 26.4593 29.9749 26.4993 29.7849C26.6293 29.2049 26.3893 28.3849 26.4993 27.7649C26.5294 27.5749 26.9794 27.4449 27.0094 27.2549C27.1394 26.2049 27.1194 24.2748 27.0094 23.2048C26.9894 23.0248 26.5294 22.8848 26.4993 22.6948C26.3793 21.9048 26.6393 20.9248 26.4993 20.1648C26.4693 19.9748 26.0394 19.8648 25.9894 19.6548C25.2794 16.7848 24.5794 15.8949 22.9494 13.5849C21.5894 11.6449 18.5994 7.68486 16.6194 6.24486C16.4094 6.09486 15.4294 5.97485 15.0994 5.23485C13.8494 6.77485 12.0994 7.5349 10.7994 9.0349C8.0594 12.1849 5.40938 15.5048 4.21938 19.6648C4.15938 19.8648 3.74937 19.9748 3.70937 20.1748C3.58937 20.7748 3.81937 21.5748 3.70937 22.1948C3.67937 22.3848 3.22936 22.5148 3.19936 22.7048C3.03936 23.9648 3.01936 27.0349 3.19936 28.2749C3.22936 28.4649 3.65937 28.5849 3.70937 28.7849C3.80937 29.2449 3.58937 29.8849 3.70937 30.3049C3.87937 30.9449 4.85939 31.8049 5.22939 32.3249C5.30939 32.4449 5.14939 32.7249 5.22939 32.8349C6.17939 34.1149 7.48937 34.5647 8.51937 35.6147C10.4394 35.8047 11.8594 36.9747 13.8294 36.6247C13.6794 36.1047 13.4094 36.055 13.3194 35.355C13.1994 34.375 13.1494 31.6849 13.3194 30.8049C13.3494 30.6349 14.0794 30.2549 13.8294 30.0449C13.4294 29.9849 12.8793 30.1449 12.5593 30.0449C11.4293 29.6649 9.68936 28.5549 8.50936 28.0249C8.14936 27.8649 7.49937 28.3349 6.98937 27.5149C5.80937 25.6349 7.58937 24.5648 9.51937 24.9848C9.70937 25.0248 10.7494 25.8849 11.0394 25.9949C11.3294 26.1049 11.7394 25.8849 12.0494 25.9949C12.3394 26.0949 12.4794 26.7749 13.3194 26.5049V16.1348C13.3194 15.5848 15.3194 14.4247 16.0994 14.8647L16.8594 15.6247V22.9648C17.6394 23.1548 17.6794 22.7948 18.1294 22.4548C19.3894 21.4948 20.1194 20.5848 21.9294 20.9348L22.4394 22.7048L17.6294 27.0049H16.8694V36.6147L16.8794 36.6247ZM42.6894 23.2148C42.6894 22.2148 39.6494 22.2148 39.6494 23.2148V41.6848C38.1594 41.7648 37.4094 39.7948 36.3594 39.1548C36.2094 39.0648 35.5994 39.2148 35.3494 38.6448L33.5794 39.1548C33.6594 39.7048 33.4494 40.4548 33.5794 40.9248C33.9194 42.1648 38.9994 45.2549 39.9094 46.7449C40.9994 47.0449 41.3594 46.5048 41.9294 46.2348C42.0894 46.1648 42.3294 46.2948 42.4394 46.2348C44.2194 45.1748 46.3994 41.7448 48.2594 40.4148L47.7494 38.1348C45.2994 37.5648 44.5894 40.1448 42.6894 41.1748V23.2148ZM34.0894 87.4848V86.4748C32.9094 85.2048 33.1893 83.3448 31.8093 82.1748C29.8793 82.3548 27.5994 81.9248 25.7394 82.1748C24.3494 82.3648 24.1194 83.5448 24.7294 84.7048L27.5094 85.4648L24.9794 89.0049C25.3294 89.7949 24.4994 90.3749 24.4694 90.5249C24.3294 91.3249 24.3094 94.8349 24.4694 95.5849C24.5094 95.7549 25.2994 96.775 25.4794 97.105C25.5494 97.235 25.4094 97.4847 25.4794 97.6147C25.8094 98.2047 26.7894 98.3948 26.4894 99.3848L30.7894 101.405C33.3194 101.195 36.2394 102.175 38.1294 100.135C37.4994 97.4648 34.8494 98.6147 32.8194 98.3647C32.6294 98.3447 32.5093 97.895 32.3093 97.855C31.6893 97.745 30.8694 97.985 30.2894 97.855C30.1094 97.815 29.9994 97.445 29.7794 97.345C29.6194 97.275 29.3794 97.405 29.2694 97.345C29.0694 97.225 28.0294 96.1749 27.9993 96.0749C27.9093 95.7549 28.0993 95.3649 27.9993 95.0649C27.9293 94.8549 27.5294 94.7449 27.4894 94.5549C27.3794 93.9149 27.3594 91.6149 27.4894 91.0149C27.6294 90.3749 29.0694 88.8648 29.0094 87.9748L30.5294 86.2048C30.8994 88.7148 32.3294 89.7748 34.0694 87.4748L34.0894 87.4848ZM48.2594 74.8249C48.0094 74.3849 47.5093 73.1449 47.2494 72.8049C46.2994 71.5249 45.3594 71.0849 43.9594 70.5249C43.7394 70.4349 43.6394 70.0549 43.4494 70.0149C42.7194 69.8549 39.1794 69.8749 38.3894 70.0149C38.1994 70.0449 38.0894 70.4549 37.8794 70.5249C37.5794 70.6249 37.1794 70.4349 36.8694 70.5249C36.6794 70.5749 34.3994 72.9049 34.0894 73.3049C33.8594 73.6049 33.3194 74.9549 33.0794 75.3249C32.7094 75.9049 31.9093 76.565 31.5593 77.345L32.0694 79.1147C33.5294 79.3247 34.2294 78.995 35.1094 77.845C35.3394 77.535 35.8794 76.1849 36.1194 75.8249C36.5694 75.1449 37.3894 74.2849 37.8894 73.5449C39.0394 73.0849 41.0794 72.7349 42.4394 73.0349C42.6194 73.0749 42.7294 73.4449 42.9494 73.5449C43.1094 73.6149 43.3494 73.4849 43.4594 73.5449C43.8094 73.7549 44.9394 74.9349 45.2294 75.3149C45.7894 76.0649 46.2694 77.415 46.7494 78.355C46.9794 78.795 47.4294 79.4647 47.7594 79.8747L46.4894 79.6247L44.7194 80.8948V82.6648C45.5294 82.3848 45.7894 83.1348 45.9894 83.1748C47.4594 83.4248 49.4894 82.6348 50.5394 83.6848L52.8194 81.4048L53.8294 77.355L52.0593 76.0849C51.7293 76.5249 51.0494 76.925 50.7894 77.355C50.5594 77.735 51.2394 78.3847 49.7794 78.1147C49.6894 76.8647 48.8494 75.8549 48.2594 74.8249ZM54.0794 99.8747C54.8094 99.8347 55.8794 98.765 56.3594 98.105C56.4394 98.005 56.2794 97.715 56.3594 97.595C56.5894 97.255 57.3094 96.8149 57.3694 96.5849C57.5194 96.0449 57.2594 95.1749 57.3694 94.5649C57.3994 94.3749 57.8094 94.2649 57.8794 94.0549C58.1794 93.0649 57.4194 92.7249 57.3694 92.5349C57.2594 92.0849 57.4894 91.4249 57.3694 91.0149C57.0294 89.8449 56.0994 88.6348 55.3494 87.4748C55.2694 87.3548 55.4294 87.0848 55.3494 86.9648C54.2194 85.2048 52.9893 85.3448 51.8093 86.9648C53.1894 89.3848 54.7894 91.9149 54.8494 94.5549C54.2494 95.3649 53.5694 96.7449 52.5694 97.3349C52.4594 97.3949 52.2193 97.2649 52.0593 97.3349C51.8393 97.4349 51.7294 97.805 51.5494 97.845C49.9894 98.195 47.4394 97.595 45.7294 97.845C46.7494 96.655 46.9194 95.9149 46.7394 94.3049L45.4694 93.7949C43.6094 94.9849 40.0394 97.8747 40.6594 100.125C40.7394 100.415 44.6694 104.345 44.9594 104.425C45.4294 104.555 46.1794 104.345 46.7294 104.425L47.2394 103.155L45.7194 100.875C48.5994 100.735 51.7994 101.435 54.0694 99.8647L54.0794 99.8747Z" fill="#4D8884"/>
</svg>
