<svg width="108" height="108" viewBox="0 0 108 108" fill="none" xmlns="http://www.w3.org/2000/svg">
<path d="M64.77 10.8801C65.71 10.5701 65.9 11.3602 66.2 11.4502C68.51 12.1302 70.89 12.49 73.08 13.74C73.68 14.08 75.05 15.7202 75.95 15.4602C76.56 14.9502 77.06 14.21 77.67 13.74C77.79 13.64 78.13 13.83 78.24 13.74C79.34 12.85 80.64 10.92 81.68 10.3C81.8 10.23 82.08 10.38 82.25 10.3C82.5 10.19 82.62 9.76998 82.82 9.72998C83.33 9.61998 85.81 9.60998 86.26 9.72998C86.52 9.79998 87.02 10.6101 87.41 10.8801C87.55 10.9701 87.86 10.7901 87.98 10.8801C90.99 13.0701 93.85 17.35 96.87 19.77V23.78L91.71 31.23C92.11 31.75 93.92 33.8101 94 34.1001C94.25 34.9601 94.19 36.22 95.15 36.97L96.3 41.5601C97.28 43.0301 99.04 42.2002 100.6 42.4202C100.81 42.4502 100.96 42.96 101.17 42.99C102.06 43.12 103.17 42.84 104.04 42.99C104.25 43.03 104.38 43.4901 104.61 43.5601C105.29 43.7801 105.89 43.2802 106.62 44.4202C106.7 44.5402 106.53 44.84 106.62 44.99C106.83 45.36 107.73 46.5202 107.77 46.7102C108.04 47.9502 108.04 58.6601 107.77 59.9001C107.65 60.4301 106.3 61.6 106.62 62.48C105.74 62.15 104.57 63.5101 104.04 63.6301C103.22 63.8101 102.05 63.4901 101.17 63.6301C100.23 63.7801 98.88 64.0002 97.73 64.2002C97.51 64.2402 97.22 65.09 96.3 64.77C96.71 65.87 95.83 66.43 95.73 66.78C95.07 68.98 94.59 71.0301 93.44 73.0901C93.11 73.6901 91.46 75.0602 91.72 75.9602C92.23 76.5702 92.96 77.0602 93.44 77.6802C93.53 77.8002 93.35 78.13 93.44 78.25C93.98 78.97 96.79 81.95 96.88 82.26C97.09 83.03 96.48 84.0201 97.45 84.55L96.3 87.4202L86.27 96.8801C84.89 96.7201 83.15 97.3601 82.26 96.3101L75.38 91.1501C74.86 91.5501 72.79 93.3602 72.51 93.4402C70.47 94.0202 68.42 95.35 66.78 95.73C66.22 95.86 65.41 95.65 64.77 95.73C64.69 96.56 64.9 97.5201 64.77 98.3101C64.74 98.5301 64.22 98.6801 64.2 98.8801C64.05 100.28 64.47 102.24 64.2 103.47C64.15 103.67 63.74 103.79 63.63 104.04C63.55 104.22 63.7 104.49 63.63 104.61C63.47 104.88 61.76 106.58 61.62 106.62C60.89 106.82 59.63 106.49 58.75 106.62C58.53 106.65 58.38 107.17 58.18 107.19C55.96 107.42 51.19 107.46 49.01 107.19C48.8 107.16 48.66 106.66 48.44 106.62C47.74 106.49 46.75 106.79 46.15 106.62C46.01 106.58 44.18 104.75 44.14 104.61C44.01 104.13 44.26 103.4 44.14 102.89C44.09 102.66 43.6 102.53 43.57 102.32C43.34 100.74 44.22 96.16 42.71 95.73C42.34 95.62 41.88 95.85 41.56 95.73C40.31 95.27 38.78 94.53 37.55 94.01C35.67 93.22 34 92.4201 32.39 91.1401C32.02 91.9801 30.9 92.12 30.67 92.29C29.26 93.32 27.53 95.44 26.08 96.3C25.96 96.37 25.68 96.22 25.51 96.3C25.26 96.41 25.14 96.8301 24.94 96.8701C24.44 96.9801 22.57 96.9801 22.07 96.8701C21.87 96.8201 21.75 96.41 21.5 96.3C21.32 96.22 21.05 96.37 20.93 96.3C19.96 95.72 18.52 93.7601 17.49 92.8601C17.38 92.7601 17.02 92.9501 16.92 92.8601C15.04 91.2001 13.34 89.3102 12.05 87.4102C11.79 87.0202 10.98 86.53 10.9 86.26C10.66 85.38 11.07 83.8401 10.9 82.8201L16.06 75.9402L12.62 70.2102L11.47 64.76C10.55 65.08 10.26 64.2302 10.04 64.1902C8.20001 63.8702 5.50001 64.0001 3.73001 63.6201C3.20001 63.5001 2.02999 62.15 1.14999 62.47L0 59.8901V46.7002C0.68 45.7802 1.46002 44.22 2.58002 43.55C2.70002 43.48 2.97999 43.6301 3.14999 43.55C3.39999 43.44 3.52 43.02 3.72 42.98C4.53 42.8 5.7 43.11 6.59 42.98C6.81 42.95 6.95 42.4402 7.16 42.4102C8.37 42.2402 11.07 42.9 11.46 41.55C11.56 41.19 11.35 40.7401 11.46 40.4001C12.27 37.8701 13.45 35.5402 14.9 32.9502C15.15 32.5102 15.19 31.68 16.05 31.23V30.6602C15.54 30.0502 14.81 29.5602 14.33 28.9402C14.24 28.8202 14.42 28.4901 14.33 28.3701C13.78 27.6301 10.99 24.6901 10.89 24.3601C10.73 23.8001 11.18 23.1101 10.32 22.6401V22.0701C11.18 21.6001 10.73 20.9101 10.89 20.3501C11.27 19.0301 19.67 12.2801 20.92 10.3201L25.51 9.75L32.39 15.48L38.12 12.04L42.71 10.8901C44.19 10.4501 43.35 6.37012 43.57 4.87012C43.6 4.66012 44.09 4.52005 44.14 4.30005C44.25 3.78005 44.01 3.06008 44.14 2.58008C44.22 2.29008 45.22 0.800068 45.57 0.570068C45.72 0.470068 46.43 0.64 46.72 0H61.63C61.99 0.57 63.52 1.59001 63.64 2.01001C63.74 2.37001 63.53 2.82016 63.64 3.16016C63.72 3.40016 64.18 3.51998 64.21 3.72998C64.45 5.07998 64.03 6.89007 64.21 8.32007C64.24 8.53007 64.74 8.67014 64.78 8.89014C64.9 9.48014 64.71 10.2501 64.78 10.9001L64.77 10.8801ZM47.86 103.19H60.76C60.91 101.44 60.55 99.45 60.76 97.74C60.79 97.53 61.29 97.3902 61.33 97.1702C61.45 96.4702 61.2 95.5701 61.33 94.8801C61.37 94.6501 62.22 94.3702 61.9 93.4502C62.81 93.7502 63.87 92.47 64.48 92.3C65.9 91.91 67.6 91.6401 69.07 91.1501L74.8 87.7102C77.05 87.2902 77.91 88.85 79.39 90C79.51 90.1 79.85 89.91 79.96 90C80.89 90.75 81.95 92.3501 82.83 92.8701C83 92.9701 83.69 92.8002 83.98 93.4402H85.13L94.02 84.55C93.52 83.37 92.53 82.7102 91.73 81.6802C91.01 80.7602 90.1 79.22 89.44 78.24C89.18 77.85 88.37 77.3601 88.29 77.0901C88.09 76.3501 88.43 75.09 88.29 74.22L91.73 69.0601C91.67 67.7501 92.62 66.1301 92.88 65.05C93 64.54 92.75 63.8101 92.88 63.3301C92.92 63.1901 94.75 61.3601 94.89 61.3201C95.25 61.2201 95.7 61.4301 96.04 61.3201C96.28 61.2401 96.4 60.78 96.61 60.75C97.79 60.54 99.37 60.91 100.62 60.75C100.83 60.72 100.97 60.2202 101.19 60.1802C101.88 60.0602 102.75 60.2602 103.48 60.1802L104.34 59.3201V47.28C103.45 45.87 102.01 46.6302 100.61 46.4202C100.4 46.3902 100.25 45.8801 100.04 45.8501C98.97 45.7001 97.63 46.0301 96.6 45.8501C96.39 45.8101 96.26 45.35 96.03 45.28C95.69 45.17 95.24 45.38 94.88 45.28C94.74 45.24 92.91 43.41 92.87 43.27C92.7 42.66 93.01 41.66 92.87 40.98C92.73 40.3 91.47 38.67 91.72 37.54L88.28 31.8101C87.85 29.9101 89.14 29.08 90 27.8C90.09 27.67 89.91 27.36 90 27.23C90.84 25.99 92.67 24.44 93.44 23.22C93.54 23.07 93.37 22.3601 94.01 22.0701C92.23 20.9401 86.32 13.5302 85.12 13.1802C84.78 13.0802 84.35 13.2502 83.97 13.1802C82.44 14.4102 80.88 16.0002 79.38 17.1902C79.26 17.2902 78.92 17.1002 78.81 17.1902C77.44 18.3202 76.89 19.97 74.8 19.48C73.16 17.85 71.16 16.92 69.07 16.04C67.97 15.58 66.12 14.6101 65.06 14.3201C64.57 14.1901 63.82 14.4501 63.34 14.3201C63.2 14.2801 61.37 12.4501 61.33 12.3101C61.13 11.5801 61.46 10.3202 61.33 9.44019C61.3 9.22019 60.78 9.07012 60.76 8.87012C60.61 7.41012 60.87 5.78003 60.76 4.28003L59.9 3.42017H47.57C47.89 4.34017 47.04 4.6301 47 4.8501C46.7 6.5401 47.3 8.90008 47 10.5801C46.96 10.7901 46.5 10.9201 46.43 11.1501C46.32 11.4901 46.53 11.94 46.43 12.3C46.4 12.4 45.22 13.6 45 13.73C44.88 13.8 44.6 13.65 44.43 13.73C44.18 13.84 44.07 14.25 43.86 14.3C42.28 14.74 40.32 14.9302 38.7 15.4502L33.54 18.8901C31.44 19.3301 31.3 18.56 30.1 17.74C29.17 17.11 27.49 16.1302 26.66 15.4502C25.6 14.5802 24.66 12.7402 23.22 13.1602C22.95 13.2402 22.46 14.0401 22.07 14.3101C21.93 14.4001 21.62 14.2201 21.5 14.3101C20.71 14.8901 14.47 20.99 14.33 21.48C13.8 23.41 15.15 23.7602 16.05 24.9202C16.77 25.8502 17.67 27.3701 18.34 28.3601C18.6 28.7501 19.41 29.24 19.49 29.51C19.98 31.28 19.03 32.2 18.34 33.52C16.82 36.46 15.28 39.3902 14.9 42.6902L12.89 45.27C11.81 44.8 10.8 45.8101 10.6 45.8401C9.44001 46.0301 8.08 46.2802 7.16 46.4102C6.28 46.5402 5.22001 46.3202 4.29001 46.4102L3.42999 47.27V59.3101C4.14999 60.5601 5.07001 59.9502 6.01001 60.1702C7.87001 60.6002 8.81001 60.48 10.6 60.74C10.77 60.77 11.83 61.7901 12.89 61.3101C13.26 61.8101 14.04 62.26 14.32 62.74C14.39 62.86 14.24 63.1401 14.32 63.3101C14.43 63.5601 14.84 63.6701 14.89 63.8801C15.7 66.8001 16.1 69.64 17.76 72.48C19.2 73.69 19.7 75.2501 19.48 77.0701C18.63 78.2601 17.46 79.41 16.61 80.51C16.52 80.63 16.7 80.9601 16.61 81.0801C15.57 82.4201 13.75 83.0201 14.32 85.0901C14.45 85.5801 20.69 91.68 21.49 92.26C21.61 92.35 21.93 92.17 22.06 92.26C22.86 92.8 23.03 93.7902 24.35 93.4102C24.81 93.2802 29.11 88.9 30.08 88.25C31.09 87.93 32.29 87.3402 33.52 87.6802C33.81 87.7602 34.27 88.6201 34.67 88.8301C38.15 90.7001 40.23 91.27 43.84 92.27C44.05 92.33 44.17 92.7301 44.41 92.8401C44.59 92.9201 44.86 92.7701 44.98 92.8401C45.46 93.1301 45.91 93.9 46.41 94.27C45.93 95.33 46.96 96.3901 46.98 96.5601C47.24 98.3001 46.8 100.48 46.98 102.29L47.84 103.15L47.86 103.19ZM64.2 28.3701C63.8 27.6001 63.15 27.69 62.77 27.51C61.07 26.71 60.55 26.7201 58.76 26.3601C58.54 26.3201 58.4 25.82 58.19 25.79C56.41 25.53 50.79 25.53 49.02 25.79C48.63 25.85 46.69 26.7802 46.15 26.9402C38.73 29.1202 34.37 32.6202 29.81 38.6902C25.88 46.1802 24.67 53.5501 27.52 61.6201C28.19 63.7601 30.61 65.6901 31.53 67.3501C31.68 67.6201 31.42 68.1002 31.53 68.2102C31.64 68.3202 32.12 68.0602 32.39 68.2102C32.82 68.4502 33.66 69.3902 33.82 69.9302C31.56 70.3602 26.04 68.5502 26.37 71.9402C26.42 72.5102 26.76 73.2501 27.23 73.3701C27.91 73.5501 34.46 73.5401 35.26 73.3701C35.47 73.3201 36.64 72.37 36.98 72.22C37.29 72.09 37.74 72.32 37.84 72.22C37.95 72.11 37.69 71.6301 37.84 71.3601C38.06 70.9701 38.91 70.5002 38.99 70.2102C39.14 69.6602 39.14 63.9001 38.99 63.3301C38.69 62.1901 36.65 62.1701 36.12 63.3301L35.83 67.0601L32.1 63.3301C31.99 62.1101 30.72 60.8201 30.38 59.8901C30.26 59.5701 30.48 59.11 30.38 58.74C30.31 58.51 29.85 58.3802 29.81 58.1702C29.67 57.5002 29.93 56.5801 29.81 55.8801C29.77 55.6601 29.26 55.5201 29.24 55.3101C29.08 54.0401 29.08 51.4201 29.24 50.1501C29.27 49.9401 29.77 49.8001 29.81 49.5801C30.13 47.7801 30.22 45.7001 30.96 43.8501C33.39 37.7401 40.57 31.56 46.73 29.8C47.2 29.67 47.92 29.91 48.45 29.8C48.67 29.76 48.81 29.26 49.02 29.23C50.09 29.07 51.43 29.41 52.46 29.23C52.67 29.19 52.8 28.7302 53.03 28.6602C53.41 28.5402 59.47 29.5701 60.48 29.8101C60.71 29.8601 60.84 30.3401 61.05 30.3801C61.82 30.5201 62.81 30.2901 63.63 30.3801L64.2 28.3701ZM78.82 35.54C78.14 35.35 70.45 35.36 69.65 35.54C69.45 35.59 69.33 36.0001 69.08 36.1101C68.9 36.1901 68.63 36.0401 68.51 36.1101C68.24 36.2701 67.24 37.27 67.08 37.54C67.01 37.66 67.16 37.9401 67.08 38.1101C66.97 38.3601 66.55 38.4802 66.51 38.6802C66.34 39.4302 66.33 45.4601 66.51 46.1301C66.82 47.2901 69.37 47.3701 69.95 46.1301L70.24 41.26L73.97 44.99C75.57 48.64 77.34 52.3602 76.84 56.4602C76.81 56.6702 76.31 56.81 76.27 57.03C76.15 57.73 76.42 58.6701 76.27 59.3201C76.22 59.5401 75.75 59.6701 75.7 59.8901C75.17 62.1301 75.19 62.33 73.98 64.48C69.93 71.65 65.15 75.1901 57.07 76.8101C56.85 76.8501 56.71 77.3501 56.5 77.3801C54.81 77.6301 49.59 77.6301 47.9 77.3801C47.69 77.3501 47.55 76.8501 47.33 76.8101C46.5 76.6401 45.6 77.18 45.04 76.24C43.82 77.18 42.73 78.5802 44.47 79.6802C44.58 79.7502 44.86 79.6002 45.04 79.6802C45.29 79.7902 45.41 80.21 45.61 80.25C46.27 80.4 47.2 80.13 47.9 80.25C48.12 80.29 48.26 80.8001 48.47 80.8201C51.33 81.1701 56.22 80.88 58.79 80.25C59.43 80.09 60.33 79.8802 61.08 79.6802C62.55 79.2802 66.71 77.09 67.96 76.24C73.54 72.45 77.85 66.3501 79.14 59.9001C79.18 59.6801 79.68 59.5401 79.71 59.3301C79.91 57.9701 79.2 56.2101 80.28 55.3201C79.56 52.9601 79.77 50.2101 79.13 47.8701C78.81 46.6801 76.94 44.71 76.84 43.28L72.25 38.4102L73.97 38.7002L79.7 38.4102C79.79 37.4802 79.81 35.81 78.84 35.54H78.82ZM61.33 46.1401L64.2 51.3L63.63 57.6101C62.42 59.9901 60.79 61.3401 58.76 63.0601L55.32 64.2102C54.06 64.0602 52.49 64.4202 51.31 64.2102C51.1 64.1702 50.97 63.7001 50.74 63.6401C50.37 63.5401 49.91 63.7601 49.59 63.6401C49.32 63.5401 47.45 62.59 47.3 62.49C45.73 61.45 44.2 59.3501 43.57 57.6201C43.48 57.3801 43.06 57.2701 43 57.05C42.87 56.57 43.11 55.8501 43 55.3301C42.95 55.1001 42.46 54.97 42.43 54.76C42.33 54.06 42.33 52.6001 42.43 51.8901C42.46 51.6801 42.95 51.5401 43 51.3201C43.11 50.8001 42.87 50.0801 43 49.6001C43.03 49.4701 44.01 47.5501 44.15 47.3101C44.48 46.7301 45.54 46.4201 45.3 45.5901L49.6 43.01L53.04 41.8601C54.7 40.3601 54.08 39.09 51.89 38.99C49.83 38.9 48.5 39.7802 46.73 40.7102C45.25 41.4802 43.57 42.3301 42.43 43.8601C42.34 43.9801 42.52 44.3002 42.43 44.4302C41.72 45.4402 40.57 46.6901 40.14 47.8701C39.96 48.3501 40.44 49.1301 39.57 49.5901V57.04C40.44 57.5 39.97 58.28 40.14 58.76C40.24 59.03 41.19 60.9 41.29 61.05C41.72 61.7001 44.94 64.9201 45.59 65.3501C45.91 65.5601 48.84 67.0301 49.03 67.0701C49.84 67.2501 51.01 66.9401 51.9 67.0701C52.11 67.1001 52.25 67.6001 52.47 67.6401C52.99 67.7401 54.24 67.7401 54.76 67.6401C54.98 67.6001 55.11 67.1101 55.33 67.0701C56.03 66.9401 56.96 67.2101 57.62 67.0701C57.81 67.0301 60.86 65.4801 61.06 65.3501C61.84 64.8301 62.34 63.5201 63.35 63.6301L66.5 59.3301L67.65 55.8901C67.92 52.6601 67.35 49.81 65.93 47.29C66.17 46.46 65.1 46.1401 64.78 45.5701C64.63 45.3001 64.89 44.8202 64.78 44.7102C64.73 44.6502 63.64 44.8701 63.35 44.1401L61.92 44.7102L61.35 46.1401H61.33Z" fill="#4D8884"/>
</svg>
