<?xml version="1.0" encoding="UTF-8"?><svg id="_層_1" xmlns="http://www.w3.org/2000/svg" viewBox="0 0 128 128"><defs><style>.cls-1{fill:#fff;}.cls-2{fill:#ca191d;}</style></defs><rect class="cls-2" width="128" height="128"/><g><path class="cls-1" d="M96.58,47.63c-.78-2.93-3.09-5.23-6.01-6.01-5.3-1.42-26.57-1.42-26.57-1.42,0,0-21.26,0-26.57,1.42-2.93,.78-5.23,3.09-6.01,6.01-1.42,5.3-1.42,16.37-1.42,16.37,0,0,0,11.06,1.42,16.37,.78,2.93,3.09,5.23,6.01,6.01,5.3,1.42,26.57,1.42,26.57,1.42,0,0,21.26,0,26.57-1.42,2.93-.78,5.23-3.09,6.01-6.01,1.42-5.3,1.42-16.37,1.42-16.37,0,0,0-11.06-1.42-16.37Z"/><polygon class="cls-2" points="57.2 74.2 74.87 64 57.2 53.8 57.2 74.2"/></g></svg>