<svg width="25" height="24" viewBox="0 0 25 24" fill="none" xmlns="http://www.w3.org/2000/svg">
<path d="M10.1878 12.7425V23.4653H0V12.7425C0 9.24893 0.949069 6.26012 2.85739 3.79646C4.45271 1.63572 6.89618 0.373607 10.1878 0.0202136V5.34133C8.79441 5.34133 7.5626 5.82593 6.48223 6.80534C5.19991 7.83522 4.55367 9.81436 4.55367 12.7425H10.1878ZM25 12.7425V23.4653H14.8122V13.2776C14.8122 9.57206 15.7411 6.4622 17.5889 3.93796C19.2347 1.67624 21.6983 0.36349 24.99 0V5.32111C23.5461 5.32111 22.294 5.80572 21.2136 6.78512C19.9818 7.81501 19.3659 9.79414 19.3659 12.7223H25V12.7425Z" fill="url(#paint0_linear_12_71)"/>
<defs>
<linearGradient id="paint0_linear_12_71" x1="4.41236" y1="23.0816" x2="22.5061" y2="4.98792" gradientUnits="userSpaceOnUse">
<stop stop-color="#3472BF"/>
<stop offset="1" stop-color="#E0C231"/>
</linearGradient>
</defs>
</svg>
