<?xml version="1.0" encoding="UTF-8"?>
<svg id="_圖層_2" data-name="圖層 2" xmlns="http://www.w3.org/2000/svg" width="250.7" height="67.44" viewBox="0 0 250.7 67.44">
  <defs>
    <style>
      .cls-1 {
        fill: #fff;
      }

      .cls-2 {
        isolation: isolate;
      }
    </style>
  </defs>
  <g id="_圖層_2-2" data-name=" 圖層 2">
    <g id="_圖層_3" data-name=" 圖層 3">
      <g class="cls-2">
        <g class="cls-2">
          <path class="cls-1" d="M38.98,66.73L2.56,4.76v61.97H0V.69h17.42l35.27,60.11V.69h2.56v66.04h-16.27Z"/>
          <path class="cls-1" d="M60.64,66.73V.69h50.03v2.65h-35.27v28.02h32.35v2.65h-32.35v30.06h35.27v2.65h-50.03Z"/>
          <path class="cls-1" d="M174.59,66.73h-14.85l-9.99-56.4-7.51,56.4h-15.47L113.33.78h14.85l12.2,59.58L148.16.78h14.67l10.52,59.94L187.76.78h2.56l-15.74,65.95Z"/>
          <path class="cls-1" d="M250.35,50.99c-.47,2.95-1.47,5.44-3.01,7.47-1.53,2.03-3.57,3.76-6.1,5.17-2.95,1.71-6.1,2.78-9.46,3.23-3.36.44-6.81.63-10.34.57-2.53,0-5.02-.24-7.47-.71-2.45-.47-4.79-1.24-7.03-2.3-1.95-1-3.74-2.22-5.39-3.67-1.65-1.44-3.07-3.2-4.24-5.26-1.06-1.89-1.94-3.85-2.65-5.88-.71-2.03-1.15-4.17-1.33-6.41l1.68-.53c.83,2.48,2.05,4.75,3.67,6.81,1.62,2.06,3.52,3.86,5.7,5.39,1.71,1.18,3.52,2.15,5.44,2.92,1.91.77,3.87,1.27,5.88,1.5,2,.3,4.11.47,6.32.53,2.21.06,4.34-.15,6.41-.62,1.77-.41,3.39-1.09,4.86-2.03,1.47-.94,2.65-2.27,3.54-3.98.65-1.24.91-2.47.79-3.71-.12-1.24-.5-2.36-1.15-3.36-.71-1.12-1.61-2.09-2.7-2.92-1.09-.82-2.25-1.38-3.49-1.68-2.65-.71-5.45-1.41-8.4-2.12-2.95-.71-5.81-1.3-8.58-1.77-2.12-.41-4.21-.94-6.28-1.59-2.06-.65-3.92-1.59-5.57-2.83-1.18-.88-2.23-1.91-3.14-3.09-.92-1.18-1.61-2.62-2.08-4.33-.53-1.88-.79-3.8-.79-5.75s.29-3.83.88-5.66c.76-2.36,1.93-4.51,3.49-6.45,1.56-1.94,3.49-3.51,5.79-4.69,2.65-1.35,5.49-2.27,8.53-2.74,3.03-.47,6.14-.62,9.33-.44,2.59.18,5.27.56,8.04,1.15,2.77.59,5.36,1.56,7.78,2.92,2,1.06,3.76,2.39,5.26,3.98,1.5,1.59,2.61,3.51,3.32,5.75.35,1.18.62,2.42.8,3.71.18,1.3.29,2.48.35,3.54h-15.82c.06-1,.03-2.22-.09-3.67-.12-1.44-.32-2.84-.62-4.2-.53-2.89-1.59-5.24-3.18-7.07-1.06-1.18-2.27-2.03-3.62-2.56-1.36-.53-2.8-.85-4.33-.97-1.71-.12-3.34.01-4.91.4-1.56.38-2.96,1.08-4.2,2.08-1.3,1.06-2.27,2.49-2.92,4.29-.65,1.8-.92,3.61-.8,5.44.12,1.36.46,2.65,1.02,3.89.56,1.24,1.43,2.21,2.61,2.92.71.47,1.46.84,2.25,1.11.8.26,1.61.46,2.43.57,2.95.47,6.26,1.14,9.95,1.99,3.68.85,7.2,1.9,10.56,3.14,4.83,1.77,8.37,4.45,10.61,8.04,2.47,4.01,3.27,8.84,2.39,14.5Z"/>
        </g>
      </g>
    </g>
  </g>
</svg>