<?xml version="1.0" encoding="UTF-8"?>
<svg id="_圖層_2" data-name="圖層 2" xmlns="http://www.w3.org/2000/svg" width="31" height="31" viewBox="0 0 31 31">
  <g id="header">
    <path id="search" d="M29.41,22.62l-5.69-4.76c-.41-.34-1.01-.32-1.4.06l-.19.19-.9-.9c2.64-4.46,1.95-10.15-1.76-13.87C15.04-1.11,7.79-1.11,3.33,3.33-1.11,7.79-1.11,15.04,3.33,19.48c2.21,2.21,5.13,3.35,8.06,3.35,2,0,4-.53,5.8-1.59l.9.9-.19.19c-.38.38-.4.98-.06,1.4l4.75,5.68c.78.95,1.92,1.54,3.15,1.6h.23c1.15,0,2.26-.45,3.08-1.27l.66-.66c.87-.87,1.33-2.08,1.27-3.31-.06-1.23-.65-2.38-1.59-3.14h.01ZM18.08,19.18c-.35-.35-.91-.4-1.32-.11-3.72,2.61-8.75,2.16-11.95-1.04-3.65-3.65-3.65-9.57,0-13.22,3.65-3.64,9.57-3.65,13.22,0,3.2,3.2,3.65,8.24,1.04,11.95-.29.41-.24.97.11,1.32l1.49,1.49-1.11,1.11-1.49-1.49ZM28.27,27.61l-.66.66c-.47.47-1.06.7-1.74.67-.65-.03-1.24-.33-1.66-.86l-4.16-4.96,3.07-3.07,4.97,4.16c.51.41.81,1,.85,1.65.03.65-.21,1.27-.67,1.74h0ZM16.92,5.91c-3.04-3.04-7.97-3.03-11.01,0-3.03,3.03-3.03,7.97,0,11.01,1.52,1.52,3.52,2.27,5.5,2.27s3.99-.75,5.5-2.27c3.03-3.03,3.03-7.97,0-11.01h.01ZM15.46,15.45c-2.23,2.22-5.86,2.22-8.08,0-2.23-2.23-2.23-5.85,0-8.08,1.12-1.12,2.57-1.67,4.04-1.67s2.93.56,4.04,1.67c2.23,2.23,2.23,5.85,0,8.08ZM26.47,25l.73.73c.4.4.4,1.05,0,1.46-.21.2-.47.3-.73.3s-.53-.09-.73-.3l-.73-.73c-.4-.4-.4-1.05,0-1.46s1.05-.4,1.46,0h.01Z" style="fill: #fff;"/>
  </g>
</svg>