<?xml version="1.0" encoding="UTF-8"?>
<svg id="_圖層_2" data-name="圖層 2" xmlns="http://www.w3.org/2000/svg" width="518.15" height="66.46" viewBox="0 0 518.15 66.46">
  <defs>
    <style>
      .cls-1, .cls-2, .cls-3 {
        fill: rgba(4, 0, 0, .3);
        stroke: #fff;
        stroke-miterlimit: 10;
      }

      .cls-2 {
        stroke-width: 1.07px;
      }

      .cls-4, .cls-5 {
        fill: #fff;
      }

      .cls-3 {
        stroke-width: 1.1px;
      }

      .cls-5 {
        font-family: NotoSansCJKtc-Regular-B5pc-H, 'Noto Sans CJK TC';
        font-size: 18.56px;
        letter-spacing: 0em;
      }
    </style>
  </defs>
  <g id="_圖層_3" data-name="圖層 3">
    <g>
      <rect class="cls-3" x="175.38" y=".55" width="170" height="55.98" rx="7.57" ry="7.57"/>
      <text class="cls-5" transform="translate(245.84 25.8)"><tspan x="0" y="0">溫室氣體</tspan><tspan x="0" y="21.21">排放登錄</tspan></text>
      <path class="cls-4" d="M237.47,8.82h-38.86c-.82,0-1.49.67-1.49,1.49v23.17h41.85V10.32c0-.82-.67-1.49-1.49-1.49ZM230.74,29.75h-25.41c-.82,0-1.49-.67-1.49-1.49v-11.96c0-.82.67-1.49,1.49-1.49s1.49.67,1.49,1.49v10.46h1.49v-2.99c0-.82.67-1.49,1.49-1.49s1.49.67,1.49,1.49v2.99h1.49v-5.98c0-.82.67-1.49,1.49-1.49s1.49.67,1.49,1.49v5.98h1.49v-4.48c0-.82.67-1.49,1.49-1.49s1.49.67,1.49,1.49v4.48h1.49v-7.47c0-.82.67-1.49,1.49-1.49s1.49.67,1.49,1.49v7.47h1.49v-10.46c0-.82.67-1.49,1.49-1.49s1.49.67,1.49,1.49v10.46h1.49c.82,0,1.49.67,1.49,1.49s-.67,1.49-1.49,1.49ZM235.97,34.98h2.99v2.99c0,.82-.67,1.49-1.49,1.49h-15.69v1.49h.75c3.3,0,5.98,2.68,5.98,5.98,0,.82-.67,1.49-1.49,1.49h-17.94c-.82,0-1.49-.67-1.49-1.49,0-3.3,2.68-5.98,5.98-5.98h.75v-1.49h-15.69c-.82,0-1.49-.67-1.49-1.49v-2.99h38.86Z"/>
      <rect class="cls-1" x="362.68" y=".55" width="154.97" height="55.98" rx="7.23" ry="7.23"/>
      <text class="cls-5" transform="translate(413.07 37.22)"><tspan x="0" y="0">主管端登入</tspan></text>
      <g>
        <path class="cls-4" d="M405.26,26.33h-28.01c-1.68,0-3.04,1.15-3.04,2.55v16.59c0,1.4,1.37,2.55,3.04,2.55h28.01c1.68,0,3.04-1.15,3.04-2.55v-16.59c0-1.4-1.37-2.55-3.04-2.55ZM393.85,36.79v5.62h-5.18v-5.62c-.93-.63-1.52-1.59-1.52-2.67,0-1.9,1.84-3.45,4.11-3.45s4.11,1.54,4.11,3.45c0,1.08-.59,2.04-1.52,2.67Z"/>
        <path class="cls-4" d="M386.23,23.78v-4.7c0-2.97,1.5-5.37,3.35-5.37h3.35c1.85,0,3.35,2.4,3.35,5.37v4.7h5.94v-9.17c0-2.97-3.27-5.37-7.31-5.37h-7.31c-4.04,0-7.31,2.4-7.31,5.37v9.17h5.94Z"/>
      </g>
      <rect class="cls-2" x=".53" y=".55" width="160" height="55.98" rx="7.35" ry="7.35"/>
      <text class="cls-5" transform="translate(68.04 36.26)"><tspan x="0" y="0">許可申請</tspan></text>
      <path class="cls-4" d="M58.5,26.76h-6.04c-1.02,0-1.88-.61-2.26-1.49-.13-.3-.21-.63-.21-.97v-.66c0-1.81.88-3.26,1.61-4.16,1.06-1.32,1.66-2.97,1.66-4.68,0-2.29-1.03-4.42-2.82-5.84-1.79-1.43-4.13-1.96-6.4-1.43-2.72.63-4.89,2.8-5.52,5.53-.31,1.35-.25,2.72.13,3.99.28.88.72,1.7,1.32,2.44.13.16.27.34.42.55.61.88,1.2,2.12,1.2,3.6v.55c0,.39-.07.75-.22,1.08-.37.9-1.24,1.49-2.24,1.49h-6.04c-.82,0-1.49.67-1.49,1.49v7.47c0,.82.67,1.49,1.49,1.49h25.41c.82,0,1.49-.67,1.49-1.49v-7.47c0-.82-.67-1.49-1.49-1.49ZM34.58,29.75h22.42v4.48h-22.42v-4.48ZM55.03,38.72h-21.94c-1.64,0-2.99-1.35-2.99-2.99v-7.47c0-1.64,1.35-2.99,2.99-2.99h6.04c.55,0,.97-.46.97-1.08v-.55c0-1.17-.51-2.14-.93-2.75-.12-.16-.24-.31-.34-.46-.1-.12-.21-.25-.28-.39-.57-.76-1-1.61-1.3-2.53-.04-.15-.09-.3-.12-.46h-11.51c-.72,0-1.33.51-1.46,1.2l-5.98,29.89c-.09.45.03.9.31,1.24.28.36.7.55,1.15.55h38.86c.45,0,.87-.19,1.15-.55.28-.34.4-.79.31-1.24l-1.88-9.42h-3.05ZM49.53,40.96c.82,0,1.49.67,1.49,1.49s-.67,1.49-1.49,1.49h-20.93c-.82,0-1.49-.67-1.49-1.49s.67-1.49,1.49-1.49h20.93Z"/>
    </g>
  </g>
</svg>